<svg xmlns="http://www.w3.org/2000/svg" viewBox="0 0 129.49 32"><path d="M2 5h.55a.49.49 0 0 1 .45.49v22a.49.49 0 0 1-.49.49H2a2 2 0 0 1-2-2V7a2 2 0 0 1 2-2ZM25.49 5H26a2 2 0 0 1 2 2v19a2 2 0 0 1-2 2h-.55a.49.49 0 0 1-.49-.49v-22a.49.49 0 0 1 .53-.51Z" fill="#ffffffcc"/><path d="M21.07 0H6.93A2.94 2.94 0 0 0 4 2.93v26.14A2.94 2.94 0 0 0 6.93 32h14.14A2.94 2.94 0 0 0 24 29.07V2.93A2.94 2.94 0 0 0 21.07 0Zm-1.79 17.43-9 5.5A1.5 1.5 0 0 1 8 21.65v-11a1.48 1.48 0 0 1 .77-1.31 1.46 1.46 0 0 1 1.51 0l9 5.5a1.5 1.5 0 0 1 0 2.56ZM40.71 7.57h2.12l6.54 17.74h-2.68L41.77 11l-4.92 14.31h-2.69Zm-3.53 11.48h9.34v2.37h-9.34ZM50.19 12.64h2.49v12.67h-2.49Zm7.69 5a2.88 2.88 0 0 0-.7-2.08 2.54 2.54 0 0 0-1.95-.73 2.58 2.58 0 0 0-1.89.65 2.41 2.41 0 0 0-.66 1.81l-.26-2.44a4.59 4.59 0 0 1 1.53-1.77 3.77 3.77 0 0 1 2.1-.62 3.93 3.93 0 0 1 3.19 1.35 5.79 5.79 0 0 1 1.13 3.81v7.69h-2.49ZM62.53 7.57H65v2.49h-2.49Zm0 5.07H65v12.67h-2.49ZM67.18 12.64h2.49v12.67h-2.49Zm7.57 5a3 3 0 0 0-.66-2.08 2.38 2.38 0 0 0-1.87-.73 2.58 2.58 0 0 0-1.89.65 2.41 2.41 0 0 0-.66 1.81l-.26-2.44a4.59 4.59 0 0 1 1.53-1.77 3.77 3.77 0 0 1 2.1-.62 4.15 4.15 0 0 1 2.27.6 3.9 3.9 0 0 1 1.43 1.77 7.06 7.06 0 0 1 .5 2.79v7.69h-2.49Zm7.56 0a2.92 2.92 0 0 0-.69-2.08 2.57 2.57 0 0 0-1.95-.73 2.26 2.26 0 0 0-1.8.71 2.91 2.91 0 0 0-.63 2l-.5-2.44a4.75 4.75 0 0 1 1.58-1.95 3.65 3.65 0 0 1 2.16-.69 4.38 4.38 0 0 1 2.34.6 3.87 3.87 0 0 1 1.48 1.77 6.89 6.89 0 0 1 .5 2.79v7.69h-2.49ZM87.51 24.53a3.64 3.64 0 0 1-1.16-2.95 3.58 3.58 0 0 1 1.07-2.82 4.68 4.68 0 0 1 3.21-.94h3.6l.17 2h-3.76a2.17 2.17 0 0 0-1.46.43 1.72 1.72 0 0 0-.48 1.33 1.65 1.65 0 0 0 .64 1.43 3.32 3.32 0 0 0 2 .46 5.73 5.73 0 0 0 2.13-.3 1 1 0 0 0 .7-1l.25 1.79a3 3 0 0 1-.81.84 3.46 3.46 0 0 1-1.12.49 5.58 5.58 0 0 1-1.42.17 5.42 5.42 0 0 1-3.56-.93Zm6.61-7.25a2.64 2.64 0 0 0-.67-1.93 2.48 2.48 0 0 0-1.88-.69 5 5 0 0 0-1.49.23 4.35 4.35 0 0 0-1.29.65L87 14.29a4.73 4.73 0 0 1 1.89-1.35 6.91 6.91 0 0 1 2.62-.48 6 6 0 0 1 2.7.56 3.81 3.81 0 0 1 1.71 1.61 5.16 5.16 0 0 1 .59 2.54v8.14h-2.37ZM98.64 12.64h2.49v12.67h-2.49Zm6.15 2.4a3 3 0 0 0-1.16-.21 2.5 2.5 0 0 0-1.84.65 2.44 2.44 0 0 0-.66 1.81l-.25-2.44a4.67 4.67 0 0 1 1.51-1.76 3.57 3.57 0 0 1 2.05-.63 4.58 4.58 0 0 1 1.57.25 3.49 3.49 0 0 1 1.23.74l-1.62 2.2a2.09 2.09 0 0 0-.83-.65ZM109.48 24.85a4.31 4.31 0 0 1-1.79-1.89 6.63 6.63 0 0 1-.61-3V17.9a6.52 6.52 0 0 1 .61-2.95 4.32 4.32 0 0 1 1.79-1.87 6.53 6.53 0 0 1 5.64 0 4.26 4.26 0 0 1 1.79 1.87 6.52 6.52 0 0 1 .62 2.95V20a6.57 6.57 0 0 1-.62 3 4.31 4.31 0 0 1-1.79 1.87 6.44 6.44 0 0 1-5.64 0Zm4.84-2.54A3.34 3.34 0 0 0 115 20v-2.1a3.33 3.33 0 0 0-.72-2.29 3 3 0 0 0-4 0 3.37 3.37 0 0 0-.71 2.29V20a3.39 3.39 0 0 0 .71 2.29 2.9 2.9 0 0 0 4 0ZM121.93 22a1.16 1.16 0 0 0 .2.72.73.73 0 0 0 .57.25h1.17v2.37h-1.46a2.77 2.77 0 0 1-2.19-.88 3.63 3.63 0 0 1-.78-2.48V7.57h2.49ZM127.55 22a1.1 1.1 0 0 0 .2.72.7.7 0 0 0 .57.25h1.17v2.37H128a2.8 2.8 0 0 1-2.19-.88 3.63 3.63 0 0 1-.77-2.48V7.57h2.49Z" fill="#fff"/></svg>