<svg xmlns="http://www.w3.org/2000/svg" viewBox="0 0 28 32"><style>path{fill:#1565c0}@media (prefers-color-scheme:dark){path{fill:#fff}}</style><path fill-rule="evenodd" d="M2 5h.55a.49.49 0 0 1 .45.49v22a.49.49 0 0 1-.49.49H2a2 2 0 0 1-2-2V7a2 2 0 0 1 2-2Zm23.49 0H26a2 2 0 0 1 2 2v19a2 2 0 0 1-2 2h-.55a.49.49 0 0 1-.49-.49v-22a.49.49 0 0 1 .53-.51Z"/><path d="M21.07 0H6.93A2.94 2.94 0 0 0 4 2.93v26.14A2.94 2.94 0 0 0 6.93 32h14.14A2.94 2.94 0 0 0 24 29.07V2.93A2.94 2.94 0 0 0 21.07 0Zm-1.79 17.43-9 5.5A1.5 1.5 0 0 1 8 21.65v-11a1.48 1.48 0 0 1 .77-1.31 1.46 1.46 0 0 1 1.51 0l9 5.5a1.5 1.5 0 0 1 0 2.56Z"/></svg>