<svg xmlns="http://www.w3.org/2000/svg" viewBox="0 0 138.612 138.612"><rect width="138.612" height="138.612" rx="23.696" fill="#3d91da"/><path d="M31.389,31.444h0a0,0,0,0,1,0,0V109.79a0,0,0,0,1,0,0h0A10.219,10.219,0,0,1,21.17,99.571V41.663A10.219,10.219,0,0,1,31.389,31.444Z" fill="#fff" opacity="0.65"/><path d="M106.328,31.444h0a10.219,10.219,0,0,1,10.219,10.219V99.571a10.219,10.219,0,0,1-10.219,10.219h0a0,0,0,0,1,0,0V31.444A0,0,0,0,1,106.328,31.444Z" fill="#fff" opacity="0.65"/><path d="M183.4,35.252H135.22a10,10,0,0,0-9.972,9.973v89.058a10,10,0,0,0,9.972,9.973H183.4a10,10,0,0,0,9.973-9.973V45.225A10,10,0,0,0,183.4,35.252ZM177.3,94.62l-30.657,18.735a5.108,5.108,0,0,1-7.771-4.365V71.52a5.108,5.108,0,0,1,7.771-4.364L177.3,85.891a5.115,5.115,0,0,1,0,8.729Z" transform="translate(-90.453 -20.84)" fill="#fff"/></svg>