<?xml version="1.0" standalone="no"?>
<!DOCTYPE svg PUBLIC "-//W3C//DTD SVG 20010904//EN"
 "http://www.w3.org/TR/2001/REC-SVG-20010904/DTD/svg10.dtd">
<svg version="1.0" xmlns="http://www.w3.org/2000/svg"
 width="1024.000000pt" height="1024.000000pt" viewBox="0 0 1024.000000 1024.000000"
 preserveAspectRatio="xMidYMid meet">
<metadata>
Created by potrace 1.14, written by Peter Selinger 2001-2017
</metadata>
<g transform="translate(0.000000,1024.000000) scale(0.100000,-0.100000)"
fill="#000000" stroke="none">
<path d="M2720 10229 c-19 -4 -41 -6 -47 -4 -7 2 -13 1 -13 -4 0 -4 -6 -8 -12
-8 -54 -1 -234 -79 -318 -137 -166 -115 -291 -279 -356 -467 -14 -41 -27 -81
-29 -90 -10 -46 -17 -97 -18 -126 -1 -18 -5 -33 -9 -33 -4 0 -4 -11 1 -23 5
-13 6 -30 1 -37 -4 -7 -4 -26 0 -41 5 -16 5 -29 0 -29 -5 0 -5 -13 0 -30 5
-17 5 -30 0 -30 -5 0 -5 -13 0 -29 4 -15 4 -34 0 -42 -5 -7 -5 -20 0 -29 4 -8
4 -22 0 -31 -5 -8 -5 -20 -1 -27 4 -7 4 -35 1 -62 -4 -28 -3 -50 1 -50 4 0 4
-13 -1 -30 -5 -17 -5 -30 0 -30 5 0 5 -13 0 -30 -5 -17 -5 -30 0 -30 5 0 5
-13 0 -30 -5 -17 -5 -30 0 -30 5 0 5 -13 0 -30 -5 -17 -5 -30 0 -30 5 0 5 -13
0 -30 -5 -17 -5 -30 0 -30 5 0 5 -13 0 -30 -5 -17 -5 -30 0 -30 5 0 5 -13 0
-30 -5 -17 -5 -30 0 -30 5 0 5 -13 0 -30 -5 -17 -5 -30 0 -30 5 0 5 -13 0 -30
-5 -17 -5 -30 0 -30 5 0 5 -13 0 -30 -5 -17 -5 -30 0 -30 5 0 5 -13 0 -29 -4
-15 -4 -34 0 -42 5 -7 4 -21 -1 -30 -6 -11 -5 -20 1 -24 5 -3 6 -15 0 -29 -4
-12 -4 -29 0 -36 5 -8 4 -22 -1 -31 -6 -11 -5 -20 1 -24 5 -3 6 -15 1 -28 -5
-12 -5 -34 0 -49 4 -16 4 -28 -1 -28 -5 0 -5 -13 0 -30 5 -17 5 -30 0 -30 -5
0 -5 -13 0 -29 4 -15 4 -34 0 -42 -5 -7 -5 -20 0 -29 4 -8 4 -22 0 -31 -5 -8
-5 -21 -1 -28 5 -7 5 -30 1 -51 -4 -21 -4 -44 1 -51 4 -7 3 -21 -2 -30 -6 -11
-5 -20 1 -24 5 -3 6 -15 1 -28 -5 -12 -5 -34 0 -49 4 -16 4 -28 -1 -28 -5 0
-5 -13 0 -30 5 -17 5 -30 0 -30 -5 0 -5 -13 0 -30 5 -17 5 -30 0 -30 -5 0 -5
-13 0 -30 5 -17 5 -30 0 -30 -5 0 -5 -13 0 -30 5 -17 5 -30 0 -30 -5 0 -5 -13
0 -30 5 -17 5 -30 0 -30 -5 0 -5 -12 -1 -27 4 -16 4 -40 0 -55 -4 -16 -3 -28
1 -28 5 0 5 -13 0 -30 -5 -17 -5 -30 0 -30 5 0 5 -13 0 -30 -5 -17 -5 -30 0
-30 5 0 5 -13 0 -30 -5 -17 -5 -30 0 -30 5 0 5 -13 0 -30 -5 -17 -5 -30 0 -30
5 0 5 -13 0 -30 -5 -17 -5 -30 0 -30 5 0 5 -13 0 -30 -5 -17 -5 -30 0 -30 5 0
5 -13 0 -30 -5 -17 -5 -30 0 -30 5 0 5 -13 0 -30 -5 -17 -5 -30 0 -30 5 0 5
-13 0 -30 -5 -17 -5 -30 0 -30 5 0 5 -13 0 -30 -5 -16 -6 -30 -2 -30 4 0 7
-22 7 -50 0 -27 -3 -50 -7 -50 -4 0 -4 -11 1 -23 5 -13 5 -30 1 -37 -5 -8 -5
-21 -1 -29 5 -8 5 -27 1 -43 -5 -15 -5 -30 0 -33 5 -3 5 -16 0 -30 -6 -15 -6
-27 0 -30 5 -3 6 -15 1 -28 -5 -12 -5 -32 0 -44 5 -14 5 -23 -1 -23 -6 0 -6
-9 -1 -23 5 -13 5 -30 1 -38 -5 -8 -5 -21 0 -28 4 -8 4 -27 0 -42 -5 -16 -5
-31 0 -34 5 -3 5 -16 0 -30 -6 -15 -6 -27 1 -30 5 -4 7 -11 4 -16 -10 -15 -11
-99 -2 -99 5 0 5 -5 2 -10 -9 -14 -10 -118 -2 -126 3 -4 2 -14 -3 -23 -5 -10
-5 -23 0 -31 5 -8 5 -21 0 -30 -5 -9 -5 -22 0 -30 5 -8 5 -21 0 -30 -5 -9 -5
-22 0 -30 5 -8 5 -21 0 -30 -5 -9 -5 -22 0 -30 5 -8 5 -21 0 -30 -5 -9 -5 -22
0 -30 5 -8 5 -21 0 -30 -5 -9 -5 -22 0 -30 5 -8 5 -21 0 -30 -5 -9 -5 -22 0
-30 5 -8 5 -21 0 -30 -5 -9 -5 -22 0 -30 5 -8 5 -21 0 -30 -5 -9 -5 -22 0 -30
5 -8 5 -21 0 -30 -5 -9 -5 -22 0 -30 5 -8 5 -21 0 -30 -5 -9 -5 -22 0 -30 5
-8 5 -21 0 -30 -5 -9 -5 -22 0 -30 5 -8 5 -21 0 -30 -5 -9 -5 -22 0 -30 5 -8
5 -21 0 -30 -5 -9 -5 -22 0 -30 5 -8 5 -21 0 -30 -5 -9 -5 -22 0 -30 4 -7 4
-24 0 -36 -6 -14 -5 -26 0 -29 6 -3 6 -15 0 -29 -5 -13 -6 -26 -3 -30 8 -8 9
-106 1 -106 -4 0 -4 -10 1 -23 5 -13 5 -30 1 -38 -5 -8 -5 -21 0 -28 4 -8 4
-27 0 -42 -5 -16 -5 -31 0 -34 5 -3 5 -16 0 -30 -6 -15 -6 -27 0 -30 5 -3 6
-15 1 -28 -5 -12 -5 -32 0 -44 5 -14 5 -23 -1 -23 -6 0 -6 -9 -1 -23 5 -13 5
-30 1 -38 -5 -8 -5 -21 0 -28 4 -8 4 -27 0 -42 -5 -16 -5 -31 0 -34 5 -3 5
-16 0 -30 -6 -15 -6 -27 0 -30 5 -3 6 -16 2 -28 -9 -25 -8 -74 1 -83 4 -4 2
-15 -3 -25 -7 -11 -7 -20 0 -24 5 -3 6 -15 1 -28 -5 -12 -5 -34 0 -49 4 -16 4
-28 -1 -28 -5 0 -5 -13 0 -30 5 -17 5 -30 0 -30 -5 0 -5 -13 0 -30 5 -17 5
-30 0 -30 -5 0 -5 -13 0 -30 5 -17 5 -30 0 -30 -5 0 -5 -13 0 -30 5 -17 5 -30
0 -30 -5 0 -5 -13 0 -30 5 -17 5 -30 0 -30 -5 0 -5 -12 -1 -27 4 -16 4 -40 0
-56 -4 -15 -3 -27 1 -27 5 0 5 -13 0 -30 -5 -17 -5 -30 0 -30 5 0 5 -13 0 -30
-5 -17 -5 -30 0 -30 5 0 5 -13 0 -30 -5 -17 -5 -30 0 -30 5 0 5 -13 0 -30 -5
-17 -5 -30 0 -30 5 0 5 -13 0 -30 -5 -17 -5 -30 0 -30 5 0 5 -13 0 -30 -5 -17
-5 -30 0 -30 5 0 5 -13 0 -30 -5 -17 -5 -30 0 -30 5 0 5 -13 0 -30 -5 -17 -5
-30 0 -30 5 0 5 -13 0 -30 -5 -17 -5 -30 0 -30 5 0 5 -13 0 -30 -5 -16 -5 -30
-1 -30 4 0 4 -27 1 -60 -3 -33 -3 -60 1 -60 4 0 4 -13 -1 -30 -5 -17 -5 -30 0
-30 5 0 5 -13 0 -30 -5 -17 -5 -30 0 -30 5 0 5 -13 0 -30 -5 -17 -5 -30 0 -30
5 0 5 -13 0 -30 -5 -17 -5 -30 0 -30 5 0 5 -13 0 -30 -5 -17 -5 -30 0 -30 5 0
5 -13 0 -30 -5 -17 -5 -30 0 -30 5 0 5 -13 0 -30 -5 -17 -5 -30 0 -30 5 0 5
-13 0 -30 -5 -17 -5 -30 0 -30 5 0 5 -13 0 -30 -5 -17 -5 -30 0 -30 5 0 5 -13
0 -30 -5 -17 -5 -30 0 -30 5 0 5 -13 0 -29 -4 -15 -4 -34 0 -42 5 -7 4 -21 -1
-30 -6 -11 -5 -20 1 -24 5 -3 6 -15 0 -29 -4 -12 -4 -29 0 -36 5 -8 4 -22 -1
-31 -6 -11 -5 -20 1 -24 5 -3 6 -15 1 -28 -5 -12 -5 -34 0 -49 4 -16 4 -28 -1
-28 -5 0 -5 -13 0 -30 5 -17 5 -30 0 -30 -5 0 -5 -13 0 -29 4 -15 4 -34 0 -42
-5 -7 -5 -20 0 -29 4 -8 4 -22 0 -31 -5 -8 -5 -20 -1 -27 4 -7 4 -35 1 -62 -4
-28 -3 -50 1 -50 4 0 4 -13 -1 -30 -5 -17 -5 -30 0 -30 5 0 5 -13 0 -30 -5
-17 -5 -30 0 -30 5 0 5 -13 0 -30 -5 -17 -5 -30 0 -30 5 0 5 -13 0 -30 -5 -18
-5 -30 0 -30 6 0 6 -10 0 -24 -5 -13 -6 -27 -3 -30 3 -3 7 -31 9 -61 1 -31 5
-73 9 -93 9 -52 46 -175 56 -188 5 -6 6 -14 2 -17 -3 -4 -1 -7 5 -7 7 0 12 -6
12 -14 0 -17 40 -89 52 -94 4 -2 8 -9 8 -16 0 -7 8 -21 18 -32 10 -10 23 -27
28 -36 14 -25 104 -118 153 -158 60 -49 176 -117 241 -141 30 -11 62 -22 70
-26 8 -3 22 -8 30 -9 148 -33 91 -32 2525 -31 1309 1 2391 6 2405 10 38 11 84
19 91 15 3 -2 12 2 20 8 8 6 32 17 54 24 149 47 307 164 424 315 69 88 144
246 165 346 3 13 7 35 10 49 3 14 8 53 11 88 2 34 7 67 10 72 3 6 2 10 -4 10
-6 0 -6 11 -1 30 5 17 5 30 0 30 -5 0 -5 13 0 30 5 17 5 32 0 35 -5 3 -5 16 0
30 6 15 6 27 0 30 -6 3 -6 15 0 30 6 15 6 27 0 30 -6 3 -6 15 0 30 6 15 6 27
0 30 -5 3 -6 15 0 29 4 12 4 29 0 36 -5 8 -5 21 0 30 5 9 5 22 0 30 -5 8 -5
21 0 30 5 9 5 22 0 30 -5 8 -5 21 0 30 5 9 5 22 0 30 -5 8 -5 21 0 30 5 9 5
22 0 30 -5 8 -5 21 0 30 5 9 5 22 0 30 -5 8 -5 21 0 30 5 9 5 22 0 30 -5 8 -5
21 0 30 5 9 5 22 0 30 -4 7 -4 24 0 36 6 14 5 26 0 29 -6 3 -6 15 0 29 5 13 6
26 3 30 -8 8 -9 106 -1 106 4 0 4 10 -1 23 -5 13 -5 30 -1 38 5 8 5 21 0 28
-4 8 -4 27 0 42 5 16 5 31 0 34 -5 3 -5 16 0 30 6 15 6 27 0 30 -5 3 -6 15 -1
28 5 12 5 32 0 45 -5 13 -5 22 1 22 6 0 6 9 1 23 -5 13 -5 30 -1 38 5 8 5 21
0 28 -4 8 -4 27 0 42 5 16 5 31 0 34 -5 3 -5 16 0 30 6 15 6 27 0 30 -5 3 -6
15 -1 28 5 12 5 32 0 45 -5 13 -5 22 1 22 6 0 6 9 1 23 -5 13 -5 30 -1 38 5 8
5 21 0 28 -4 8 -4 27 0 42 5 16 5 31 0 34 -5 3 -5 16 0 30 6 15 6 27 0 30 -5
3 -6 15 -1 28 5 12 5 32 0 45 -5 13 -5 22 1 22 6 0 6 9 1 23 -5 13 -5 30 -1
38 5 8 5 21 0 28 -4 8 -4 27 0 42 5 16 5 31 0 34 -5 3 -5 16 0 30 6 15 6 27
-1 30 -5 4 -7 11 -4 16 10 15 11 99 2 99 -5 0 -5 5 -2 10 9 14 10 118 2 126
-3 4 -2 14 3 23 5 10 5 23 0 31 -5 8 -5 21 0 30 5 9 5 22 0 30 -5 8 -5 21 0
30 5 9 5 22 0 30 -5 8 -5 21 0 30 5 9 5 22 0 30 -5 8 -5 21 0 30 5 9 5 22 0
30 -5 8 -5 21 0 30 5 9 5 22 0 30 -5 8 -5 21 0 30 5 9 5 22 0 30 -5 8 -5 21 0
30 5 9 5 22 0 30 -5 8 -5 21 0 30 5 9 5 22 0 30 -5 8 -5 21 0 30 5 9 5 22 0
30 -5 8 -5 21 0 30 5 9 5 22 0 30 -5 8 -5 21 0 30 5 9 5 22 0 30 -5 8 -5 21 0
30 5 9 5 22 0 30 -5 8 -5 21 0 30 5 9 5 22 0 30 -5 8 -5 21 0 30 5 9 5 22 0
30 -4 7 -4 24 0 36 6 14 5 26 0 29 -6 3 -6 15 0 29 5 13 6 26 3 30 -8 8 -9
106 -1 106 4 0 4 10 -1 23 -5 13 -5 30 -1 38 5 8 5 21 0 28 -4 8 -4 27 0 42 5
16 5 31 0 34 -5 3 -5 16 0 30 6 15 6 27 0 30 -5 3 -6 15 -1 28 5 12 5 32 0 45
-5 13 -5 22 1 22 6 0 6 9 1 23 -5 13 -5 30 -1 38 5 8 5 21 0 28 -4 8 -4 27 0
42 5 16 5 31 0 34 -5 3 -5 16 0 30 6 15 6 27 0 30 -5 3 -6 15 -1 28 5 12 5 32
0 45 -5 13 -5 22 1 22 6 0 6 9 1 23 -5 13 -5 30 -1 38 5 8 5 21 0 28 -4 8 -4
27 0 42 5 16 5 31 0 34 -5 3 -5 16 0 30 6 15 6 27 0 30 -5 3 -6 15 -1 28 5 12
5 32 0 45 -5 13 -5 22 1 22 6 0 6 9 1 23 -5 13 -5 30 -1 38 5 8 5 21 0 28 -4
8 -4 27 0 42 5 16 5 31 0 34 -5 3 -5 16 0 30 6 15 6 27 -1 30 -5 4 -7 11 -4
16 10 15 11 99 2 99 -5 0 -5 5 -2 10 9 14 10 118 2 126 -3 4 -2 14 3 23 5 10
5 23 0 31 -5 8 -5 21 0 30 5 9 5 22 0 30 -5 8 -5 21 0 30 5 9 5 22 0 30 -5 8
-5 21 0 30 5 9 5 22 0 30 -5 8 -5 21 0 30 5 9 5 22 0 30 -5 8 -5 21 0 30 5 9
5 22 0 30 -5 8 -5 21 0 30 5 9 5 22 0 30 -5 8 -5 21 0 30 5 9 5 22 0 30 -5 8
-5 21 0 30 5 9 5 22 0 30 -5 8 -5 21 0 30 5 9 5 22 0 30 -5 8 -5 21 0 30 5 9
5 22 0 30 -5 8 -5 21 0 30 5 9 5 22 0 30 -5 8 -5 21 0 30 5 9 5 22 0 30 -5 8
-5 21 0 30 5 9 5 22 0 30 -5 8 -5 21 0 30 5 9 5 22 0 30 -4 7 -4 24 0 36 6 14
5 26 0 29 -6 3 -6 15 0 29 5 13 6 26 3 30 -8 8 -9 106 -1 106 4 0 4 10 -1 23
-5 13 -5 30 -1 38 5 8 5 21 0 28 -4 8 -4 27 0 42 5 16 5 31 0 34 -5 3 -5 16 0
30 6 15 6 27 0 30 -5 3 -6 15 -1 28 5 12 5 32 0 45 -5 13 -5 22 1 22 6 0 6 9
1 23 -5 13 -5 30 -1 38 5 8 5 21 0 28 -4 8 -4 27 0 42 5 16 5 31 0 34 -5 3 -5
16 0 30 6 15 6 27 0 30 -5 3 -6 15 -1 28 5 12 5 32 0 45 -5 13 -5 22 1 22 6 0
6 9 1 23 -5 13 -5 30 -1 38 5 8 5 21 0 28 -4 8 -4 27 0 42 5 16 5 31 0 34 -5
3 -5 16 0 30 6 15 6 27 0 30 -5 3 -6 15 -1 28 5 12 5 32 0 45 -5 13 -5 22 1
22 6 0 6 9 1 23 -5 13 -5 30 -1 38 5 8 5 21 0 28 -4 8 -4 27 0 42 5 16 5 31 0
34 -5 3 -5 16 0 30 6 15 6 27 -1 30 -5 4 -7 11 -4 16 10 15 11 99 2 99 -5 0
-5 5 -2 10 4 6 6 34 6 63 -1 29 -1 60 -1 70 0 9 0 24 0 32 0 8 0 22 0 30 0 8
0 22 0 30 0 8 0 22 0 30 0 8 0 22 0 30 0 8 0 22 0 30 0 8 0 22 0 30 0 8 0 22
0 30 0 8 0 22 0 30 0 8 0 22 0 30 0 8 0 22 0 30 0 8 0 22 0 30 0 8 0 22 0 30
0 8 0 22 0 30 0 8 0 22 0 30 0 8 0 22 0 30 0 8 0 22 0 30 0 8 0 22 0 30 0 8 0
22 0 30 0 8 0 22 0 30 0 8 0 22 0 30 0 8 0 21 0 28 -1 6 -1 41 -1 77 1 103 -3
180 -10 180 -3 0 -5 10 -4 23 1 12 0 27 -4 32 -5 10 -9 23 -15 55 -1 8 -6 24
-10 35 -4 11 -17 43 -28 71 -55 144 -167 289 -298 388 -30 22 -61 47 -68 54
-7 6 -19 12 -27 12 -7 0 -15 4 -17 8 -5 13 -167 79 -228 92 -30 7 -71 17 -90
21 -46 11 -4754 9 -4800 -2z m1090 -2927 c25 -6 65 -22 90 -36 25 -14 63 -35
85 -47 22 -12 42 -25 45 -29 3 -4 10 -9 15 -11 6 -2 83 -48 170 -102 88 -54
167 -103 175 -108 8 -5 77 -47 153 -94 76 -47 142 -85 146 -85 5 0 14 -7 21
-15 7 -9 15 -13 17 -11 3 3 14 -3 24 -13 11 -10 32 -24 47 -32 15 -8 61 -35
102 -61 41 -27 81 -48 88 -48 6 0 12 -4 12 -8 0 -5 12 -15 28 -23 15 -7 50
-28 77 -45 82 -51 268 -165 300 -184 17 -10 97 -59 178 -109 81 -50 152 -91
157 -91 6 0 10 -4 10 -8 0 -5 15 -16 33 -25 17 -10 48 -27 68 -40 326 -201
609 -373 629 -383 16 -8 210 -129 318 -197 160 -102 236 -235 236 -412 -1
-103 -3 -112 -36 -195 -34 -87 -174 -231 -267 -275 -22 -11 -41 -23 -41 -27 0
-5 -7 -8 -15 -8 -8 0 -15 -3 -15 -7 0 -5 -18 -17 -40 -27 -22 -11 -40 -23 -40
-28 0 -4 -4 -8 -10 -8 -12 0 -264 -152 -268 -162 -2 -5 -8 -8 -13 -8 -8 0
-187 -108 -324 -194 -27 -18 -104 -65 -170 -105 -136 -82 -119 -72 -248 -151
-54 -33 -100 -60 -103 -60 -3 0 -10 -5 -17 -10 -23 -20 -87 -59 -87 -54 0 3
-15 -6 -32 -19 -18 -13 -62 -41 -98 -62 -36 -22 -66 -43 -68 -47 -2 -4 -8 -8
-12 -8 -13 0 -163 -91 -172 -104 -4 -6 -8 -7 -8 -2 0 5 -8 2 -17 -6 -10 -8
-106 -68 -213 -133 -107 -65 -211 -128 -230 -140 -132 -84 -219 -135 -228
-135 -6 0 -12 -4 -14 -8 -1 -5 -55 -39 -118 -77 -63 -38 -117 -71 -120 -75 -3
-3 -25 -16 -50 -29 -25 -13 -47 -27 -50 -31 -5 -7 -97 -40 -123 -44 -7 -1 -16
-4 -22 -7 -13 -7 -150 -3 -195 6 -71 14 -158 64 -222 127 -87 85 -128 167
-144 283 -3 28 -9 54 -12 59 -3 5 0 6 6 2 9 -5 9 0 2 18 -5 15 -6 26 0 26 5 0
5 12 0 30 -5 17 -5 30 0 30 5 0 5 13 0 30 -5 18 -5 30 0 30 6 0 6 9 1 23 -5
13 -5 30 0 39 6 11 5 19 -1 23 -7 4 -7 12 0 25 6 12 7 21 0 25 -6 4 -6 15 0
30 5 14 6 25 2 25 -4 0 -7 11 -7 25 0 14 3 25 7 25 4 0 3 13 -2 30 -5 18 -5
32 1 35 5 4 5 13 0 23 -5 9 -10 19 -12 22 -1 3 3 15 10 28 8 15 8 22 1 22 -8
0 -8 6 0 20 8 14 8 20 0 20 -8 0 -8 6 0 20 8 14 8 20 0 20 -8 0 -8 6 0 20 8
14 8 20 0 20 -8 0 -8 6 0 20 8 14 8 20 0 20 -8 0 -8 6 0 20 8 14 8 20 0 20 -8
0 -8 6 0 20 8 14 8 20 0 20 -8 0 -8 6 0 20 8 14 8 20 0 20 -8 0 -8 6 0 20 8
14 8 20 0 20 -8 0 -8 6 0 20 8 14 8 20 0 20 -8 0 -8 6 0 20 8 14 8 20 0 20 -8
0 -8 6 0 20 8 14 8 20 0 20 -8 0 -8 6 0 20 8 14 8 20 0 20 -8 0 -8 6 0 20 8
14 8 20 0 20 -8 0 -8 6 0 20 8 14 8 20 0 20 -8 0 -8 6 0 20 7 13 8 26 1 37 -6
11 -6 24 0 35 6 12 6 18 0 18 -6 0 -6 11 -1 30 5 17 6 30 2 30 -8 0 -6 85 2
106 3 8 2 14 -2 14 -4 0 -7 25 -7 55 0 30 3 55 7 55 4 0 3 13 -2 30 -5 18 -5
32 1 35 5 4 5 14 -1 25 -7 13 -7 21 0 25 7 4 7 12 1 23 -6 10 -6 23 0 34 6 12
6 18 0 18 -6 0 -6 11 -1 30 5 17 6 30 2 30 -8 0 -6 85 2 106 3 8 2 14 -2 14
-4 0 -7 25 -7 55 0 30 3 55 7 55 4 0 3 13 -2 30 -5 18 -5 32 1 35 5 4 5 14 -1
25 -7 13 -7 21 0 25 7 4 7 12 1 23 -6 10 -6 23 0 34 6 12 6 18 0 18 -6 0 -6
11 -1 30 5 19 5 30 -1 30 -7 0 -7 6 0 17 6 11 6 24 0 35 -6 10 -5 19 1 23 6 4
6 15 0 30 -6 16 -6 25 0 25 8 0 2 28 -10 50 -2 3 2 15 9 28 8 15 8 22 1 22 -8
0 -8 6 0 20 8 14 8 20 0 20 -8 0 -8 6 0 20 8 14 8 20 0 20 -8 0 -8 6 0 20 8
14 8 20 0 20 -8 0 -8 6 0 20 8 14 8 20 0 20 -8 0 -8 6 0 20 8 14 8 20 0 20 -8
0 -8 6 0 20 8 14 8 20 0 20 -8 0 -8 6 0 20 8 14 8 20 0 20 -8 0 -8 6 0 20 8
14 8 20 0 20 -8 0 -8 6 0 20 8 14 8 20 0 20 -8 0 -8 6 0 20 8 14 8 20 0 20 -8
0 -8 6 0 20 8 14 8 20 0 20 -8 0 -8 6 0 20 8 14 8 20 0 20 -8 0 -8 6 0 20 8
14 8 20 0 20 -8 0 -8 6 0 20 8 14 8 20 0 20 -6 0 -8 5 -5 11 9 13 12 79 5 79
-3 0 -5 14 -5 30 0 17 3 30 7 30 4 0 3 11 -2 25 -6 16 -6 25 1 25 6 0 6 6 0
18 -5 10 -6 24 -1 32 5 8 5 21 0 30 -5 9 -5 22 0 30 5 9 5 19 -1 26 -7 8 -6
14 1 19 7 4 7 12 0 25 -6 12 -7 21 0 25 6 4 6 15 0 30 -5 14 -6 25 -2 25 4 0
7 21 6 48 -1 124 76 262 198 354 42 32 151 81 203 90 37 7 160 1 205 -10z"/>
<path d="M1297 8643 c-3 -2 -34 -6 -69 -7 -36 -2 -69 -6 -75 -9 -5 -3 -25 -9
-44 -12 -19 -3 -72 -24 -117 -46 -64 -31 -101 -58 -155 -113 -40 -40 -77 -79
-82 -87 -21 -28 -86 -167 -91 -194 -1 -5 -3 -12 -4 -15 -1 -3 -4 -14 -8 -25
-3 -11 -8 -1431 -9 -3156 -3 -2741 -1 -3142 12 -3185 8 -27 15 -51 15 -54 2
-35 63 -157 89 -178 9 -7 14 -14 11 -15 -6 -2 44 -60 85 -98 36 -33 102 -79
115 -79 4 0 10 -4 12 -9 5 -13 149 -60 209 -67 30 -4 108 -7 175 -7 101 0 126
4 150 19 57 37 70 58 80 123 3 20 7 42 9 49 2 6 0 12 -6 12 -6 0 -7 4 -4 10 3
5 6 40 5 77 0 38 0 76 0 86 0 9 0 24 0 32 0 8 0 22 0 30 0 8 0 22 0 30 0 8 0
22 0 30 0 8 0 22 0 30 0 8 0 22 0 30 0 8 0 22 0 30 0 8 0 22 0 30 0 8 0 22 0
30 0 8 0 22 0 30 0 8 0 22 0 30 0 8 0 22 0 30 0 8 0 22 0 30 0 8 0 22 0 30 0
8 0 22 0 30 0 8 0 22 0 30 0 8 0 21 0 28 1 6 -1 33 -2 60 -2 26 0 47 4 47 4 0
4 10 -1 23 -5 13 -5 30 -1 38 5 8 5 21 0 28 -4 8 -4 27 0 42 5 16 5 31 0 34
-5 3 -5 16 0 30 6 15 6 27 0 30 -5 3 -6 16 -2 28 9 25 8 74 -1 83 -4 4 -2 15
3 25 7 11 7 20 0 24 -5 3 -6 15 -1 28 5 12 5 34 0 49 -4 16 -4 28 1 28 5 0 5
13 0 30 -5 17 -5 30 0 30 5 0 5 13 0 30 -5 17 -5 30 0 30 5 0 5 13 0 30 -5 18
-5 30 0 30 6 0 6 10 0 24 -5 13 -6 27 -3 30 8 8 9 76 1 76 -4 0 -3 14 2 30 5
17 5 30 1 30 -4 0 -5 22 -1 50 3 27 3 55 -1 62 -4 6 -3 20 2 29 6 11 5 20 -1
24 -5 3 -6 15 -1 28 5 12 5 34 0 49 -4 16 -4 28 1 28 5 0 5 13 0 30 -5 17 -5
30 0 30 5 0 5 13 0 30 -5 17 -5 30 0 30 5 0 5 13 0 30 -5 18 -5 30 0 30 6 0 6
10 0 24 -5 13 -6 27 -3 30 8 8 9 76 1 76 -4 0 -3 14 2 30 5 17 5 30 1 30 -4 0
-4 27 -1 60 3 33 3 60 -1 60 -4 0 -4 14 1 30 5 17 6 30 2 30 -4 0 -7 16 -7 35
0 19 3 35 7 35 4 0 3 14 -2 30 -5 17 -5 30 0 30 5 0 5 13 0 30 -5 17 -5 30 0
30 5 0 5 13 0 30 -5 17 -5 30 0 30 5 0 5 13 0 30 -5 17 -5 30 0 30 5 0 5 13 0
29 -4 15 -4 34 0 42 5 7 5 20 0 29 -5 9 -5 22 0 30 5 8 6 18 3 23 -8 13 -9 97
-1 97 4 0 4 10 -1 23 -5 13 -5 30 -1 38 5 8 5 21 0 28 -4 8 -4 27 0 42 5 16 5
31 0 34 -5 3 -5 16 0 30 6 15 6 27 0 30 -5 3 -6 16 -2 28 4 12 6 36 5 52 -2
17 -3 36 -3 43 0 6 0 19 0 27 0 8 0 22 0 30 0 8 0 22 0 30 0 8 0 22 0 30 0 8
0 22 0 30 0 8 0 22 0 30 0 8 0 22 0 30 0 8 0 22 0 30 0 8 0 22 0 30 0 8 0 22
0 30 0 8 0 22 0 30 0 8 0 22 0 30 0 8 0 22 0 30 0 8 0 22 0 30 0 8 0 22 0 30
0 8 0 22 0 30 0 8 0 21 0 28 1 6 -1 33 -2 60 -2 26 0 47 4 47 4 0 4 10 -1 23
-5 13 -5 30 -1 38 5 8 5 21 0 28 -4 8 -4 27 0 42 5 16 5 31 0 34 -5 3 -5 16 0
30 6 15 6 27 -1 30 -5 4 -7 11 -4 16 9 13 11 99 3 99 -4 0 -3 14 2 30 5 17 6
30 2 30 -4 0 -7 16 -7 35 0 19 3 35 7 35 4 0 3 14 -2 30 -5 17 -5 30 0 30 5 0
5 13 0 30 -5 17 -5 30 0 30 5 0 5 13 0 30 -5 17 -5 30 0 30 5 0 5 13 0 30 -5
17 -5 30 0 30 5 0 5 13 0 29 -4 15 -4 34 0 42 5 7 5 20 0 29 -4 8 -4 22 0 31
5 8 5 21 1 28 -5 7 -5 30 -1 51 4 21 4 44 -1 51 -4 7 -3 21 2 30 6 11 5 20 -1
24 -5 3 -6 15 -1 28 5 12 5 34 0 49 -4 16 -4 28 1 28 5 0 5 13 0 30 -5 17 -5
30 0 30 5 0 5 13 0 30 -5 17 -5 30 0 30 5 0 5 13 0 30 -5 18 -5 30 0 30 6 0 6
10 0 24 -5 13 -6 27 -3 30 8 8 9 76 1 76 -4 0 -3 14 2 30 5 17 5 30 1 30 -4 0
-5 22 -1 50 3 27 3 55 -1 62 -4 6 -3 20 2 29 6 11 5 20 -1 24 -5 3 -6 15 -1
28 5 12 5 34 0 49 -4 16 -4 28 1 28 5 0 5 13 0 30 -5 17 -5 30 0 30 5 0 5 13
0 30 -5 17 -5 30 0 30 5 0 5 13 0 30 -5 18 -5 30 0 30 6 0 6 10 0 24 -5 13 -6
27 -3 30 8 8 9 76 1 76 -4 0 -3 14 2 30 5 17 6 30 2 30 -4 0 -7 23 -7 50 0 28
3 50 7 50 4 0 4 10 -1 23 -5 13 -5 30 -1 38 5 8 5 21 0 28 -4 8 -4 27 0 42 5
16 5 31 0 34 -5 3 -5 16 0 30 6 15 6 27 0 30 -5 3 -6 16 -2 28 4 12 6 36 5 52
-2 17 -3 36 -3 43 0 6 0 19 0 27 0 8 0 22 0 30 0 8 0 22 0 30 0 8 0 22 0 30 0
8 0 22 0 30 0 8 0 22 0 30 0 8 0 22 0 30 0 8 0 22 0 30 0 8 0 22 0 30 0 8 0
22 0 30 0 8 0 22 0 30 0 8 0 22 0 30 0 8 0 21 0 28 3 102 -57 180 -140 183
-22 0 -43 4 -46 7 -3 3 -18 2 -32 -2 -15 -4 -39 -4 -54 0 -15 4 -29 5 -31 2z"/>
<path d="M8800 8640 c0 -4 -11 -5 -24 -3 -51 10 -129 -53 -143 -117 -2 -8 -4
-1612 -4 -3563 -1 -3796 -4 -3585 47 -3634 29 -26 88 -47 120 -40 13 2 27 0
30 -4 3 -5 12 -5 22 0 9 5 26 5 38 1 12 -5 24 -6 27 -3 3 2 41 7 84 9 110 6
123 7 123 14 0 3 10 7 22 7 34 3 178 78 218 113 19 18 39 35 45 38 6 4 26 27
45 52 19 25 37 47 40 50 13 13 62 114 83 172 l22 63 2 3153 c2 1946 -1 3160
-6 3171 -6 10 -12 31 -15 47 -2 16 -5 30 -6 32 -2 1 -3 5 -5 10 -1 4 -7 20
-13 35 -7 16 -12 30 -12 33 0 18 -98 148 -142 187 -73 66 -158 125 -158 111 0
-4 -9 1 -21 12 -12 10 -24 18 -28 17 -3 -1 -24 3 -46 9 -22 6 -47 13 -55 15
-8 2 -55 6 -104 9 -48 2 -92 6 -96 9 -5 3 -11 1 -14 -4 -3 -5 -21 -5 -41 -1
-19 4 -35 4 -35 0z"/>
</g>
</svg>
