<svg xmlns="http://www.w3.org/2000/svg" viewBox="0 0 95.378 109.003"><path d="M10.219 17.032v78.346A10.219 10.219 0 0 1 0 85.159V27.251a10.219 10.219 0 0 1 10.219-10.219Zm74.94 0a10.219 10.219 0 0 1 10.219 10.219v57.908a10.219 10.219 0 0 1-10.219 10.219V17.032Z" fill="#fff" opacity=".65"/><path d="M71.778 0h-48.18a10 10 0 0 0-9.972 9.973v89.058a10 10 0 0 0 9.972 9.973h48.18a10 10 0 0 0 9.973-9.973V9.973A10 10 0 0 0 71.778 0Zm-6.1 59.368L35.021 78.103a5.108 5.108 0 0 1-7.771-4.365v-37.47a5.108 5.108 0 0 1 7.771-4.364l30.657 18.735a5.115 5.115 0 0 1 0 8.729Z" fill="#fff"/></svg>