<svg xmlns="http://www.w3.org/2000/svg" viewBox="0 0 249.044 60.61"><path d="M5.682 9.47v43.564A5.682 5.682 0 0 1 0 47.351v-32.2A5.682 5.682 0 0 1 5.682 9.47Zm41.669 0a5.682 5.682 0 0 1 5.682 5.682v32.2a5.682 5.682 0 0 1-5.682 5.682V9.47Z" fill="#fff" opacity=".65"/><path d="M39.912 0H13.121a5.562 5.562 0 0 0-5.545 5.545v49.519a5.562 5.562 0 0 0 5.545 5.546h26.791a5.562 5.562 0 0 0 5.545-5.546V5.545A5.561 5.561 0 0 0 39.912 0ZM36.52 33.01 19.473 43.428a2.841 2.841 0 0 1-4.321-2.427V20.166a2.841 2.841 0 0 1 4.321-2.427L36.52 28.156a2.844 2.844 0 0 1 0 4.853Zm40.578-18.68h4.024l12.392 33.617h-5.086L79.11 20.826l-9.318 27.121h-5.086Zm-6.681 21.756h17.687v4.485H70.417Zm25.117-12.138h4.717v24h-4.717Zm14.566 9.456a5.481 5.481 0 0 0-1.318-3.93 4.858 4.858 0 0 0-3.7-1.387 4.911 4.911 0 0 0-3.572 1.225 4.584 4.584 0 0 0-1.259 3.444l-.486-4.624a8.576 8.576 0 0 1 2.9-3.353 7.059 7.059 0 0 1 3.965-1.178 7.449 7.449 0 0 1 6.046 2.554q2.139 2.556 2.139 7.225v14.566h-4.717Zm9.28-19.074h4.717v4.716h-4.717Zm0 9.618h4.717v24h-4.717Zm9.279 0h4.717v24h-4.717Zm14.335 9.456a5.676 5.676 0 0 0-1.248-3.93 4.515 4.515 0 0 0-3.538-1.387 4.912 4.912 0 0 0-3.572 1.225 4.584 4.584 0 0 0-1.26 3.444l-.485-4.624a8.574 8.574 0 0 1 2.9-3.353 7.061 7.061 0 0 1 3.965-1.178 7.792 7.792 0 0 1 4.3 1.143 7.2 7.2 0 0 1 2.717 3.342 13.473 13.473 0 0 1 .936 5.294v14.566h-4.717Zm14.335 0a5.481 5.481 0 0 0-1.318-3.93 4.855 4.855 0 0 0-3.7-1.387 4.33 4.33 0 0 0-3.4 1.341 5.484 5.484 0 0 0-1.2 3.792l-.948-4.625a9.22 9.22 0 0 1 2.994-3.688 6.99 6.99 0 0 1 4.1-1.3 8.215 8.215 0 0 1 4.427 1.143 7.2 7.2 0 0 1 2.8 3.342 13.175 13.175 0 0 1 .96 5.294v14.566h-4.717Zm10.317 13.052a6.87 6.87 0 0 1-2.2-5.584 6.764 6.764 0 0 1 2.012-5.341q2.019-1.775 6.088-1.775h6.82l.325 3.792h-7.123a4.031 4.031 0 0 0-2.762.82 3.207 3.207 0 0 0-.913 2.509 3.113 3.113 0 0 0 1.214 2.7 6.3 6.3 0 0 0 3.687.879 10.649 10.649 0 0 0 4.035-.578 1.9 1.9 0 0 0 1.329-1.8l.486 3.376a5.537 5.537 0 0 1-1.537 1.6 6.736 6.736 0 0 1-2.117.937 10.776 10.776 0 0 1-2.7.311q-4.444-.008-6.644-1.846Zm12.508-13.722a5.067 5.067 0 0 0-1.259-3.665 4.736 4.736 0 0 0-3.573-1.306 9.173 9.173 0 0 0-2.809.439 8.318 8.318 0 0 0-2.44 1.226l-3.444-2.359a8.989 8.989 0 0 1 3.595-2.554 12.953 12.953 0 0 1 4.96-.913 11.426 11.426 0 0 1 5.109 1.051 7.311 7.311 0 0 1 3.237 3.052 9.8 9.8 0 0 1 1.11 4.821v15.421h-4.486Zm9.052-8.786h4.717v24h-4.717Zm11.63 4.532a5.7 5.7 0 0 0-2.2-.393 4.707 4.707 0 0 0-3.48 1.236 4.643 4.643 0 0 0-1.233 3.433l-.485-4.624a8.8 8.8 0 0 1 2.867-3.341 6.771 6.771 0 0 1 3.884-1.19 8.817 8.817 0 0 1 2.97.473 6.681 6.681 0 0 1 2.325 1.4l-3.076 4.162a3.943 3.943 0 0 0-1.572-1.156Zm9.372 18.589a8.089 8.089 0 0 1-3.388-3.573 12.575 12.575 0 0 1-1.167-5.652v-3.907a12.321 12.321 0 0 1 1.167-5.584 8.052 8.052 0 0 1 3.388-3.538 12.365 12.365 0 0 1 10.682 0 8.05 8.05 0 0 1 3.387 3.538 12.321 12.321 0 0 1 1.167 5.584v3.976a12.378 12.378 0 0 1-1.167 5.607 8.118 8.118 0 0 1-3.387 3.549 12.256 12.256 0 0 1-10.682 0Zm9.167-4.809a6.4 6.4 0 0 0 1.353-4.347v-3.976a6.308 6.308 0 0 0-1.353-4.325 5.562 5.562 0 0 0-7.652 0 6.3 6.3 0 0 0-1.353 4.325v3.976a6.39 6.39 0 0 0 1.353 4.347 5.5 5.5 0 0 0 7.652 0Zm14.888-.504a2.106 2.106 0 0 0 .382 1.353 1.3 1.3 0 0 0 1.075.473h2.219v4.486h-2.775a5.24 5.24 0 0 1-4.149-1.664 6.862 6.862 0 0 1-1.469-4.694V14.33h4.717Zm11.105 0a2.106 2.106 0 0 0 .382 1.353 1.3 1.3 0 0 0 1.075.473h2.221v4.486h-2.774a5.244 5.244 0 0 1-4.15-1.664 6.867 6.867 0 0 1-1.469-4.694V14.33h4.717Z" fill="#fff"/></svg>